o Cube.001_Cube.005
usemtl Material.001
v -0.6204228397948127 1.2834152410567206 -0.6694080444383218
v 0.6760014432450637 -0.01339717161319176 -0.6376824711684608
v -0.6204228397948127 -0.01339717161319176 -0.6694080444383218
v 0.6760014432450637 1.2834152410567206 -0.6376824711684608
v 0.6442758699752028 -0.01339717161319176 0.6587418118714157
v 0.6760014432450637 -0.01339717161319176 -0.6376824711684608
v 0.6442758699752028 1.2834152410567206 0.6587418118714157
v -0.6521484130646736 1.2834152410567206 0.6270162386015546
v 0.4870142197561142 1.1261059822112691 0.6548933680619043
v -0.6521484130646736 -0.01339717161319176 0.6270162386015546
v 0.4870142197561142 0.143911560342113 0.6548933680619043
v -0.49488626537604824 0.143911560342113 0.6308646945849403
v -0.6521484130646736 1.2834152410567206 0.6270162386015546
v -0.6204228397948127 -0.01339717161319176 -0.6694080444383218
v -0.6521484130646736 -0.01339717161319176 0.6270162386015546
v 0.6442758699752028 -0.01339717161319176 0.6587418118714157
v -0.6204228397948127 -0.01339717161319176 -0.6694080444383218
v 0.6760014432450637 -0.01339717161319176 -0.6376824711684608
v 0.6760014432450637 1.2834152410567206 -0.6376824711684608
v -0.6521484130646736 1.2834152410567206 0.6270162386015546
v 0.6442758699752028 1.2834152410567206 0.6587418118714157
v 0.5071855338509275 0.143911560342113 -0.16938114357263584
v -0.4747149512812349 1.1261059822112691 -0.19340981704959992
v -0.4747149512812349 0.143911560342113 -0.19340981704959992
v 0.5071855338509275 1.1261059822112691 -0.16938114357263584
v 0.4870142197561142 0.143911560342113 0.6548933680619043
v 0.4870142197561142 1.1261059822112691 0.6548933680619043
v -0.4747149512812349 0.143911560342113 -0.19340981704959992
v -0.49488626537604824 1.1261059822112691 0.6308646945849403
v -0.49488626537604824 0.143911560342113 0.6308646945849403
v -0.4747149512812349 0.143911560342113 -0.19340981704959992
v 0.4870142197561142 0.143911560342113 0.6548933680619043
v 0.5071855338509275 0.143911560342113 -0.16938114357263584
v 0.5071855338509275 1.1261059822112691 -0.16938114357263584
v -0.49488626537604824 1.1261059822112691 0.6308646945849403
v -0.4747149512812349 1.1261059822112691 -0.19340981704959992
v -0.6204228397948127 1.2834152410567206 -0.6694080444383218
v 0.6760014432450637 1.2834152410567206 -0.6376824711684608
v 0.6760014432450637 -0.01339717161319176 -0.6376824711684608
v 0.6760014432450637 1.2834152410567206 -0.6376824711684608
v 0.6442758699752028 1.2834152410567206 0.6587418118714157
v 0.6442758699752028 -0.01339717161319176 0.6587418118714157
v 0.4870142197561142 0.143911560342113 0.6548933680619043
v 0.6442758699752028 -0.01339717161319176 0.6587418118714157
v 0.6442758699752028 1.2834152410567206 0.6587418118714157
v -0.6521484130646736 1.2834152410567206 0.6270162386015546
v -0.6521484130646736 -0.01339717161319176 0.6270162386015546
v -0.49488626537604824 0.143911560342113 0.6308646945849403
v -0.6521484130646736 1.2834152410567206 0.6270162386015546
v -0.49488626537604824 0.143911560342113 0.6308646945849403
v -0.49488626537604824 1.1261059822112691 0.6308646945849403
v 0.4870142197561142 1.1261059822112691 0.6548933680619043
v 0.4870142197561142 0.143911560342113 0.6548933680619043
v 0.6442758699752028 1.2834152410567206 0.6587418118714157
v -0.6521484130646736 1.2834152410567206 0.6270162386015546
v -0.49488626537604824 1.1261059822112691 0.6308646945849403
v 0.4870142197561142 1.1261059822112691 0.6548933680619043
v -0.6521484130646736 -0.01339717161319176 0.6270162386015546
v 0.6442758699752028 -0.01339717161319176 0.6587418118714157
v 0.4870142197561142 0.143911560342113 0.6548933680619043
v -0.6521484130646736 1.2834152410567206 0.6270162386015546
v -0.6204228397948127 1.2834152410567206 -0.6694080444383218
v -0.6204228397948127 -0.01339717161319176 -0.6694080444383218
v 0.6442758699752028 -0.01339717161319176 0.6587418118714157
v -0.6521484130646736 -0.01339717161319176 0.6270162386015546
v -0.6204228397948127 -0.01339717161319176 -0.6694080444383218
v 0.6760014432450637 1.2834152410567206 -0.6376824711684608
v -0.6204228397948127 1.2834152410567206 -0.6694080444383218
v -0.6521484130646736 1.2834152410567206 0.6270162386015546
v 0.5071855338509275 0.143911560342113 -0.16938114357263584
v 0.5071855338509275 1.1261059822112691 -0.16938114357263584
v -0.4747149512812349 1.1261059822112691 -0.19340981704959992
v 0.5071855338509275 1.1261059822112691 -0.16938114357263584
v 0.5071855338509275 0.143911560342113 -0.16938114357263584
v 0.4870142197561142 0.143911560342113 0.6548933680619043
v -0.4747149512812349 0.143911560342113 -0.19340981704959992
v -0.4747149512812349 1.1261059822112691 -0.19340981704959992
v -0.49488626537604824 1.1261059822112691 0.6308646945849403
v -0.4747149512812349 0.143911560342113 -0.19340981704959992
v -0.49488626537604824 0.143911560342113 0.6308646945849403
v 0.4870142197561142 0.143911560342113 0.6548933680619043
v 0.5071855338509275 1.1261059822112691 -0.16938114357263584
v 0.4870142197561142 1.1261059822112691 0.6548933680619043
v -0.49488626537604824 1.1261059822112691 0.6308646945849403
vt 0.5806480050086975 0.9264310002326965
vt 0.7742699980735779 0.7501350045204163
vt 0.6203830242156982 0.7242029905319214
vt 0.7766579985618591 0.9211000204086304
vt 0.8762450218200684 0.6827669739723206
vt 0.7742699980735779 0.7501350045204163
vt 0.8527669906616211 0.8840460181236267
vt 0.8240540027618408 0.8840460181236267
vt 0.8492839932441711 0.8805630207061768
vt 0.638713002204895 0.7895230054855347
vt 0.6880760192871094 0.7963370084762573
vt 0.6455270051956177 0.7963370084762573
vt 0.846759021282196 0.8840460181236267
vt 0.818045973777771 0.8553329706192017
vt 0.846759021282196 0.8553329706192017
vt 0.6831349730491638 0.8460410237312317
vt 0.6269569993019104 0.7898640036582947
vt 0.6269569993019104 0.8460410237312317
vt 0.6269569993019104 0.8460410237312317
vt 0.6831349730491638 0.7898640036582947
vt 0.6831349730491638 0.8460410237312317
vt 0.4269559979438782 0.2689270079135895
vt 0.38440799713134766 0.3114759922027588
vt 0.38440799713134766 0.2689270079135895
vt 0.39146798849105835 0.5364009737968445
vt 0.4271860122680664 0.49385198950767517
vt 0.4271860122680664 0.5364009737968445
vt 0.15749399363994598 0.49385198950767517
vt 0.19321200251579285 0.5364009737968445
vt 0.19321200251579285 0.49385198950767517
vt 0.39405301213264465 0.26797500252723694
vt 0.4297710061073303 0.31052398681640625
vt 0.39405301213264465 0.31052398681640625
vt 0.38241899013519287 0.32215800881385803
vt 0.4181370139122009 0.27960899472236633
vt 0.38241899013519287 0.27960899472236633
vt 0.5806480050086975 0.9264310002326965
vt 0.7766579985618591 0.9211000204086304
vt 0.7742699980735779 0.7501350045204163
vt 0.7766579985618591 0.9211000204086304
vt 0.9198309779167175 0.9492759704589844
vt 0.8762450218200684 0.6827669739723206
vt 0.8492839932441711 0.8588160276412964
vt 0.8527669906616211 0.8553329706192017
vt 0.8527669906616211 0.8840460181236267
vt 0.8240540027618408 0.8840460181236267
vt 0.8240540027618408 0.8553329706192017
vt 0.8275370001792908 0.8588160276412964
vt 0.8240540027618408 0.8840460181236267
vt 0.8275370001792908 0.8588160276412964
vt 0.8275370001792908 0.8805630207061768
vt 0.8492839932441711 0.8805630207061768
vt 0.8492839932441711 0.8588160276412964
vt 0.8527669906616211 0.8840460181236267
vt 0.8240540027618408 0.8840460181236267
vt 0.8275370001792908 0.8805630207061768
vt 0.8492839932441711 0.8805630207061768
vt 0.638713002204895 0.7895230054855347
vt 0.6948909759521484 0.7895230054855347
vt 0.6880760192871094 0.7963370084762573
vt 0.846759021282196 0.8840460181236267
vt 0.818045973777771 0.8840460181236267
vt 0.818045973777771 0.8553329706192017
vt 0.6831349730491638 0.8460410237312317
vt 0.6831349730491638 0.7898640036582947
vt 0.6269569993019104 0.7898640036582947
vt 0.6269569993019104 0.8460410237312317
vt 0.6269569993019104 0.7898640036582947
vt 0.6831349730491638 0.7898640036582947
vt 0.4269559979438782 0.2689270079135895
vt 0.4269559979438782 0.3114759922027588
vt 0.38440799713134766 0.3114759922027588
vt 0.39146798849105835 0.5364009737968445
vt 0.39146798849105835 0.49385198950767517
vt 0.4271860122680664 0.49385198950767517
vt 0.15749399363994598 0.49385198950767517
vt 0.15749399363994598 0.5364009737968445
vt 0.19321200251579285 0.5364009737968445
vt 0.39405301213264465 0.26797500252723694
vt 0.4297710061073303 0.26797500252723694
vt 0.4297710061073303 0.31052398681640625
vt 0.38241899013519287 0.32215800881385803
vt 0.4181370139122009 0.32215800881385803
vt 0.4181370139122009 0.27960899472236633
vn 0.024464273290339292 3.6653081388933135e-20 -0.9997007048774027
vn 0.024464273290339292 3.6653081388933135e-20 -0.9997007048774027
vn 0.024464273290339292 3.6653081388933135e-20 -0.9997007048774027
vn 0.9997007048774027 2.996009397848004e-18 0.024464273290339292
vn 0.9997007048774027 2.996009397848004e-18 0.024464273290339292
vn 0.9997007048774027 2.996009397848004e-18 0.024464273290339292
vn -0.024464273290339292 -3.6653081388933135e-20 0.9997007048774027
vn -0.024464273290339292 -3.6653081388933135e-20 0.9997007048774027
vn -0.024464273290339292 -3.6653081388933135e-20 0.9997007048774027
vn -0.024464273290339292 -3.6653081388933135e-20 0.9997007048774027
vn -0.024464273290339292 -3.6653081388933135e-20 0.9997007048774027
vn -0.024464273290339292 -3.6653081388933135e-20 0.9997007048774027
vn -0.9997007048774027 -2.996009397848004e-18 -0.024464273290339292
vn -0.9997007048774027 -2.996009397848004e-18 -0.024464273290339292
vn -0.9997007048774027 -2.996009397848004e-18 -0.024464273290339292
vn 2.996009397848004e-18 -1 3.6653081388933135e-20
vn 2.996009397848004e-18 -1 3.6653081388933135e-20
vn 2.996009397848004e-18 -1 3.6653081388933135e-20
vn -2.996009397848004e-18 1 -3.6653081388933135e-20
vn -2.996009397848004e-18 1 -3.6653081388933135e-20
vn -2.996009397848004e-18 1 -3.6653081388933135e-20
vn -0.024464273290339292 -3.6653081388933135e-20 0.9997007048774027
vn -0.024464273290339292 -3.6653081388933135e-20 0.9997007048774027
vn -0.024464273290339292 -3.6653081388933135e-20 0.9997007048774027
vn -0.9997007048774027 -2.996009397848004e-18 -0.024464273290339292
vn -0.9997007048774027 -2.996009397848004e-18 -0.024464273290339292
vn -0.9997007048774027 -2.996009397848004e-18 -0.024464273290339292
vn 0.9997007048774027 2.996009397848004e-18 0.024464273290339292
vn 0.9997007048774027 2.996009397848004e-18 0.024464273290339292
vn 0.9997007048774027 2.996009397848004e-18 0.024464273290339292
vn -2.996009397848004e-18 1 -3.6653081388933135e-20
vn -2.996009397848004e-18 1 -3.6653081388933135e-20
vn -2.996009397848004e-18 1 -3.6653081388933135e-20
vn 2.996009397848004e-18 -1 3.6653081388933135e-20
vn 2.996009397848004e-18 -1 3.6653081388933135e-20
vn 2.996009397848004e-18 -1 3.6653081388933135e-20
vn 0.024464273290339292 3.6653081388933135e-20 -0.9997007048774027
vn 0.024464273290339292 3.6653081388933135e-20 -0.9997007048774027
vn 0.024464273290339292 3.6653081388933135e-20 -0.9997007048774027
vn 0.9997007048774027 2.996009397848004e-18 0.024464273290339292
vn 0.9997007048774027 2.996009397848004e-18 0.024464273290339292
vn 0.9997007048774027 2.996009397848004e-18 0.024464273290339292
vn -0.024464273290339292 -3.6653081388933135e-20 0.9997007048774027
vn -0.024464273290339292 -3.6653081388933135e-20 0.9997007048774027
vn -0.024464273290339292 -3.6653081388933135e-20 0.9997007048774027
vn -0.024464273290339292 -3.6653081388933135e-20 0.9997007048774027
vn -0.024464273290339292 -3.6653081388933135e-20 0.9997007048774027
vn -0.024464273290339292 -3.6653081388933135e-20 0.9997007048774027
vn -0.024464273290339292 -3.6653081388933135e-20 0.9997007048774027
vn -0.024464273290339292 -3.6653081388933135e-20 0.9997007048774027
vn -0.024464273290339292 -3.6653081388933135e-20 0.9997007048774027
vn -0.024464273290339292 -3.6653081388933135e-20 0.9997007048774027
vn -0.024464273290339292 -3.6653081388933135e-20 0.9997007048774027
vn -0.024464273290339292 -3.6653081388933135e-20 0.9997007048774027
vn -0.024464273290339292 -3.6653081388933135e-20 0.9997007048774027
vn -0.024464273290339292 -3.6653081388933135e-20 0.9997007048774027
vn -0.024464273290339292 -3.6653081388933135e-20 0.9997007048774027
vn -0.024464273290339292 -3.6653081388933135e-20 0.9997007048774027
vn -0.024464273290339292 -3.6653081388933135e-20 0.9997007048774027
vn -0.024464273290339292 -3.6653081388933135e-20 0.9997007048774027
vn -0.9997007048774027 -2.996009397848004e-18 -0.024464273290339292
vn -0.9997007048774027 -2.996009397848004e-18 -0.024464273290339292
vn -0.9997007048774027 -2.996009397848004e-18 -0.024464273290339292
vn 2.996009397848004e-18 -1 3.6653081388933135e-20
vn 2.996009397848004e-18 -1 3.6653081388933135e-20
vn 2.996009397848004e-18 -1 3.6653081388933135e-20
vn -2.996009397848004e-18 1 -3.6653081388933135e-20
vn -2.996009397848004e-18 1 -3.6653081388933135e-20
vn -2.996009397848004e-18 1 -3.6653081388933135e-20
vn -0.024464273290339292 -3.6653081388933135e-20 0.9997007048774027
vn -0.024464273290339292 -3.6653081388933135e-20 0.9997007048774027
vn -0.024464273290339292 -3.6653081388933135e-20 0.9997007048774027
vn -0.9997007048774027 -2.996009397848004e-18 -0.024464273290339292
vn -0.9997007048774027 -2.996009397848004e-18 -0.024464273290339292
vn -0.9997007048774027 -2.996009397848004e-18 -0.024464273290339292
vn 0.9997007048774027 2.996009397848004e-18 0.024464273290339292
vn 0.9997007048774027 2.996009397848004e-18 0.024464273290339292
vn 0.9997007048774027 2.996009397848004e-18 0.024464273290339292
vn -2.996009397848004e-18 1 -3.6653081388933135e-20
vn -2.996009397848004e-18 1 -3.6653081388933135e-20
vn -2.996009397848004e-18 1 -3.6653081388933135e-20
vn 2.996009397848004e-18 -1 3.6653081388933135e-20
vn 2.996009397848004e-18 -1 3.6653081388933135e-20
vn 2.996009397848004e-18 -1 3.6653081388933135e-20
f 1/1/1 2/2/2 3/3/3
f 4/4/4 5/5/5 6/6/6
f 7/7/7 8/8/8 9/9/9
f 10/10/10 11/11/11 12/12/12
f 13/13/13 14/14/14 15/15/15
f 16/16/16 17/17/17 18/18/18
f 19/19/19 20/20/20 21/21/21
f 22/22/22 23/23/23 24/24/24
f 25/25/25 26/26/26 27/27/27
f 28/28/28 29/29/29 30/30/30
f 31/31/31 32/32/32 33/33/33
f 34/34/34 35/35/35 36/36/36
f 37/37/37 38/38/38 39/39/39
f 40/40/40 41/41/41 42/42/42
f 43/43/43 44/44/44 45/45/45
f 46/46/46 47/47/47 48/48/48
f 49/49/49 50/50/50 51/51/51
f 52/52/52 53/53/53 54/54/54
f 55/55/55 56/56/56 57/57/57
f 58/58/58 59/59/59 60/60/60
f 61/61/61 62/62/62 63/63/63
f 64/64/64 65/65/65 66/66/66
f 67/67/67 68/68/68 69/69/69
f 70/70/70 71/71/71 72/72/72
f 73/73/73 74/74/74 75/75/75
f 76/76/76 77/77/77 78/78/78
f 79/79/79 80/80/80 81/81/81
f 82/82/82 83/83/83 84/84/84
